<svg width="17" height="16" viewBox="0 0 17 16" fill="none" xmlns="http://www.w3.org/2000/svg">
<path d="M6.40488 1.21893C6.93298 -0.406402 9.23239 -0.406402 9.76049 1.21893L10.4591 3.36916C10.6953 4.09603 11.3727 4.58815 12.1369 4.58815H14.3978C16.1068 4.58815 16.8174 6.77502 15.4348 7.77953L13.6057 9.10844C12.9874 9.55767 12.7286 10.354 12.9648 11.0808L13.6635 13.2311C14.1916 14.8564 12.3313 16.2079 10.9487 15.2034L9.11962 13.8745C8.50131 13.4253 7.66405 13.4253 7.04574 13.8745L5.21665 15.2034C3.83406 16.2079 1.9738 14.8564 2.5019 13.2311L3.20056 11.0808C3.43673 10.354 3.178 9.55767 2.55969 9.10844L0.730597 7.77953C-0.65199 6.77502 0.0585651 4.58815 1.76754 4.58815H4.02842C4.7927 4.58815 5.47005 4.09603 5.70623 3.36916L6.40488 1.21893Z" fill="#FF8A00"/>
</svg>
