<svg width="34" height="25" viewBox="0 0 34 25" fill="none" xmlns="http://www.w3.org/2000/svg">
<path d="M0 16.6406C0 12.6042 1.34115 9.17969 4.02344 6.36719C6.70573 3.52865 10.6771 1.40625 15.9375 0V3.59375C14.2969 4.08854 12.8906 4.72656 11.7188 5.50781C10.5729 6.28906 9.66146 7.1875 8.98438 8.20312C8.33333 9.19271 8.00781 10.1432 8.00781 11.0547C8.00781 11.6536 8.20312 12.1615 8.59375 12.5781C9.01042 12.9688 9.81771 13.4766 11.0156 14.1016C13.0208 15.1693 14.0234 16.7839 14.0234 18.9453C14.0234 20.5339 13.4375 21.8099 12.2656 22.7734C11.1198 23.7109 9.59635 24.1797 7.69531 24.1797C5.48177 24.1797 3.64583 23.4766 2.1875 22.0703C0.729167 20.638 0 18.8281 0 16.6406ZM17.5781 16.6406C17.5781 12.6042 18.9193 9.17969 21.6016 6.36719C24.2839 3.52865 28.2552 1.40625 33.5156 0V3.59375C31.875 4.08854 30.4688 4.72656 29.2969 5.50781C28.151 6.28906 27.2396 7.1875 26.5625 8.20312C25.9115 9.19271 25.5859 10.1432 25.5859 11.0547C25.5859 11.6536 25.7812 12.1615 26.1719 12.5781C26.5885 12.9688 27.3958 13.4766 28.5938 14.1016C30.599 15.1693 31.6016 16.7839 31.6016 18.9453C31.6016 20.5339 31.0156 21.8099 29.8438 22.7734C28.6979 23.7109 27.1745 24.1797 25.2734 24.1797C23.0599 24.1797 21.224 23.4766 19.7656 22.0703C18.3073 20.638 17.5781 18.8281 17.5781 16.6406Z" fill="#311F09"/>
</svg>
